<?xml version="1.0" encoding="UTF-8"?>
<svg width="512" height="512" viewBox="0 0 512 512" xmlns="http://www.w3.org/2000/svg">
  <!-- Background rounded square -->
  <rect x="0" y="0" width="512" height="512" rx="120" fill="#0d6efd"/>

  <!-- Simple Calendar Event Icon -->
  <g fill="white">
    <!-- Calendar outline -->
    <path d="M158 142h196c8.8 0 16 7.2 16 16v196c0 8.8-7.2 16-16 16H158c-8.8 0-16-7.2-16-16V158c0-8.8 7.2-16 16-16z"/>

    <!-- Calendar top bar -->
    <path d="M158 142h196c8.8 0 16 7.2 16 16v30H142v-30c0-8.8 7.2-16 16-16z" fill="#0d6efd"/>

    <!-- Calendar hangers -->
    <path d="M190 142v-30c0-5.5 4.5-10 10-10s10 4.5 10 10v30h-20z"/>
    <path d="M302 142v-30c0-5.5 4.5-10 10-10s10 4.5 10 10v30h-20z"/>

    <!-- Event highlight -->
    <circle cx="256" cy="290" r="40" fill="#0d6efd"/>
  </g>
</svg>
